<?xml version="1.0" standalone="no"?>
<!DOCTYPE svg PUBLIC "-//W3C//DTD SVG 20010904//EN"
 "http://www.w3.org/TR/2001/REC-SVG-20010904/DTD/svg10.dtd">
<svg version="1.0" xmlns="http://www.w3.org/2000/svg"
 width="626.000000pt" height="535.000000pt" viewBox="0 0 626.000000 535.000000"
 preserveAspectRatio="xMidYMid meet">

<g transform="translate(0.000000,535.000000) scale(0.100000,-0.100000)"
fill="#000000" stroke="none">
<path d="M2425 4748 c-3 -7 -4 -537 -3 -1178 l3 -1165 482 -3 482 -2 -50 81
c-35 56 -52 95 -56 129 l-6 48 -35 -10 c-20 -6 -82 -8 -138 -6 -93 3 -107 6
-178 42 -299 147 -369 515 -145 760 247 271 694 171 810 -181 23 -68 25 -207
5 -274 -17 -54 -51 -124 -78 -159 l-19 -24 34 -18 c47 -24 70 -52 176 -227 51
-83 94 -151 97 -151 2 0 4 55 4 123 0 121 -1 124 -25 137 -13 7 -41 38 -61 68
-65 98 -54 173 36 240 25 19 47 39 49 44 1 5 -14 24 -36 43 -54 46 -97 134
-90 185 6 50 38 93 87 121 46 26 51 51 15 67 -34 16 -96 112 -102 160 -7 55
20 107 79 149 l48 35 -2 487 -3 486 -688 3 c-545 2 -689 0 -692 -10z m1195
-383 c10 -12 10 -18 0 -30 -11 -13 -77 -14 -498 -11 -498 4 -503 4 -488 41 8
23 967 22 986 0z m0 -150 c10 -12 10 -18 0 -30 -12 -14 -70 -15 -499 -11 -343
3 -487 8 -489 16 -13 37 -9 37 491 39 424 1 486 0 497 -14z m-5 -149 c16 -12
17 -16 6 -30 -12 -15 -62 -16 -500 -14 l-486 3 -3 22 c-3 22 -3 23 165 25 573
10 799 8 818 -6z m-245 -151 c30 -36 8 -37 -587 -35 -142 0 -153 1 -153 18 0
10 3 22 7 25 3 4 167 7 363 7 310 0 359 -2 370 -15z"/>
<path d="M3940 4061 c0 -5 5 -13 10 -16 6 -3 10 -2 10 4 0 5 -4 13 -10 16 -5
3 -10 2 -10 -4z"/>
<path d="M3910 4040 c-9 -6 -10 -10 -3 -10 6 0 15 5 18 10 8 12 4 12 -15 0z"/>
<path d="M3930 4020 c0 -5 5 -10 10 -10 6 0 10 5 10 10 0 6 -4 10 -10 10 -5 0
-10 -4 -10 -10z"/>
<path d="M3877 4013 c-4 -3 -7 -51 -7 -105 l0 -99 33 1 c17 0 48 -2 67 -4 34
-5 34 -5 4 3 -44 11 -54 19 -55 44 -1 21 -1 21 -8 -2 -4 -14 -12 -26 -19 -29
-17 -5 -17 184 1 191 6 3 7 6 1 6 -6 1 -14 -2 -17 -6z"/>
<path d="M3913 3950 c0 -25 2 -35 4 -22 2 12 2 32 0 45 -2 12 -4 2 -4 -23z"/>
<path d="M4006 3955 c-9 -26 -7 -32 5 -12 6 10 9 21 6 23 -2 3 -7 -2 -11 -11z"/>
<path d="M4080 3873 c0 -6 8 -17 18 -24 16 -13 16 -13 2 6 -8 11 -16 22 -17
24 -2 2 -3 0 -3 -6z"/>
<path d="M4065 3810 c3 -5 8 -10 11 -10 2 0 4 5 4 10 0 6 -5 10 -11 10 -5 0
-7 -4 -4 -10z"/>
<path d="M3980 3784 c0 -2 12 -9 26 -15 15 -5 24 -12 21 -16 -4 -3 1 -19 9
-35 9 -17 18 -27 21 -25 3 3 -2 16 -10 28 -9 11 -13 27 -11 34 3 7 -7 17 -25
23 -17 6 -31 9 -31 6z"/>
<path d="M4065 3680 c-3 -5 -1 -10 4 -10 6 0 11 5 11 10 0 6 -2 10 -4 10 -3 0
-8 -4 -11 -10z"/>
<path d="M4104 3655 c-4 -8 -10 -12 -15 -9 -5 3 -9 -13 -9 -36 0 -27 4 -39 11
-35 6 4 8 9 5 12 -2 3 2 22 9 44 13 36 12 58 -1 24z"/>
<path d="M4063 3528 c2 -7 -3 -19 -12 -26 -14 -11 -14 -11 3 -5 13 4 17 3 12
-5 -3 -6 -3 -13 1 -15 5 -3 9 10 10 29 1 19 -3 34 -8 34 -6 0 -9 -6 -6 -12z"/>
<path d="M4007 3453 c-8 -7 11 -33 25 -33 5 0 6 4 3 10 -3 5 2 9 12 7 10 -1
18 3 18 8 0 11 -11 11 -39 -1 -14 -5 -17 -4 -12 4 8 13 3 16 -7 5z"/>
<path d="M3975 3429 c-4 -5 -16 -7 -28 -4 -20 5 -20 5 -4 -5 10 -7 21 -9 24
-6 4 3 12 -3 20 -14 8 -11 20 -20 26 -20 8 0 7 3 -2 9 -7 5 -11 13 -8 17 3 5
-1 15 -9 21 -8 9 -15 9 -19 2z"/>
<path d="M4050 3411 c0 -8 -6 -11 -16 -7 -14 6 -15 4 -4 -9 12 -15 14 -15 23
0 5 9 6 19 3 22 -3 4 -6 1 -6 -6z"/>
<path d="M4065 3389 c-4 -6 -5 -12 -2 -15 2 -3 7 2 10 11 7 17 1 20 -8 4z"/>
<path d="M4025 3360 c3 -5 8 -10 11 -10 2 0 4 5 4 10 0 6 -5 10 -11 10 -5 0
-7 -4 -4 -10z"/>
<path d="M4051 3349 c-1 -8 6 -24 15 -35 15 -19 15 -19 6 1 -5 11 -12 27 -15
35 -5 13 -6 13 -6 -1z"/>
<path d="M4082 3220 c0 -19 2 -27 5 -17 2 9 2 25 0 35 -3 9 -5 1 -5 -18z"/>
<path d="M4023 3103 c-27 -28 -29 -35 -8 -27 15 6 41 43 33 48 -2 1 -13 -9
-25 -21z"/>
<path d="M3970 3070 c-9 -6 -10 -10 -3 -10 6 0 15 5 18 10 8 12 4 12 -15 0z"/>
<path d="M3935 3040 c3 -5 10 -10 16 -10 5 0 9 5 9 10 0 6 -7 10 -16 10 -8 0
-12 -4 -9 -10z"/>
<path d="M3990 3023 c0 -15 25 -34 35 -25 5 4 5 -1 2 -10 -9 -25 0 -22 14 3 9
17 8 20 -2 14 -8 -6 -11 -4 -7 7 4 8 1 15 -7 15 -7 0 -11 -7 -8 -16 3 -11 0
-10 -11 3 -9 11 -16 15 -16 9z"/>
<path d="M4051 2951 c-8 -5 -9 -11 -3 -15 5 -3 12 1 16 9 6 17 6 18 -13 6z"/>
<path d="M4060 2911 c0 -6 4 -13 10 -16 6 -3 7 1 4 9 -7 18 -14 21 -14 7z"/>
<path d="M4082 2845 c0 -16 2 -22 5 -12 2 9 2 23 0 30 -3 6 -5 -1 -5 -18z"/>
<path d="M4066 2757 c3 -10 9 -15 12 -12 3 3 0 11 -7 18 -10 9 -11 8 -5 -6z"/>
<path d="M4025 2720 c-3 -5 -1 -10 4 -10 6 0 11 5 11 10 0 6 -2 10 -4 10 -3 0
-8 -4 -11 -10z"/>
<path d="M4000 2690 c0 -5 7 -7 15 -4 8 4 15 8 15 10 0 2 -7 4 -15 4 -8 0 -15
-4 -15 -10z"/>
<path d="M3966 2632 c-3 -5 1 -9 9 -9 8 0 12 4 9 9 -3 4 -7 8 -9 8 -2 0 -6 -4
-9 -8z"/>
<path d="M4448 2533 c7 -3 16 -2 19 1 4 3 -2 6 -13 5 -11 0 -14 -3 -6 -6z"/>
<path d="M3874 2466 c-3 -8 -4 -23 -1 -33 3 -12 5 -9 6 9 0 14 7 29 14 31 9 4
9 6 -1 6 -7 1 -15 -5 -18 -13z"/>
<path d="M4103 2413 c9 -2 25 -2 35 0 9 3 1 5 -18 5 -19 0 -27 -2 -17 -5z"/>
<path d="M4040 2399 c0 -5 5 -7 10 -4 6 3 10 8 10 11 0 2 -4 4 -10 4 -5 0 -10
-5 -10 -11z"/>
<path d="M4205 2400 c3 -5 8 -10 11 -10 2 0 4 5 4 10 0 6 -5 10 -11 10 -5 0
-7 -4 -4 -10z"/>
<path d="M3873 2350 c0 -30 2 -43 4 -27 2 15 2 39 0 55 -2 15 -4 2 -4 -28z"/>
<path d="M3980 2359 c0 -5 5 -7 10 -4 6 3 10 8 10 11 0 2 -4 4 -10 4 -5 0 -10
-5 -10 -11z"/>
<path d="M4277 2334 c6 -15 23 -19 23 -5 0 5 -7 11 -14 14 -10 4 -13 1 -9 -9z"/>
<path d="M3926 2315 c-3 -9 -2 -13 3 -10 5 3 11 -3 13 -12 2 -10 6 -13 10 -8
3 6 0 18 -7 28 -11 16 -13 16 -19 2z"/>
<path d="M3891 2268 c6 -10 15 -15 21 -12 8 5 9 1 4 -12 -5 -14 -4 -16 5 -7
13 13 2 36 -13 27 -7 -5 -9 -2 -6 8 4 8 0 15 -7 15 -10 0 -11 -5 -4 -19z"/>
<path d="M3550 2028 c-19 -24 -27 -37 -19 -31 9 7 18 11 20 9 2 -2 11 12 20
30 9 19 16 34 14 34 -1 0 -17 -19 -35 -42z"/>
<path d="M3600 2022 c0 -21 23 -61 31 -56 5 3 9 10 9 15 0 6 -4 7 -10 4 -5 -3
-11 -1 -11 4 -3 26 -4 30 -11 37 -5 4 -8 2 -8 -4z"/>
<path d="M3506 1955 c4 -8 8 -15 10 -15 2 0 4 7 4 15 0 8 -4 15 -10 15 -5 0
-7 -7 -4 -15z"/>
<path d="M3460 1905 c0 -8 2 -15 4 -15 2 0 6 7 10 15 3 8 1 15 -4 15 -6 0 -10
-7 -10 -15z"/>
<path d="M3690 1884 c0 -5 7 -18 15 -28 8 -11 15 -16 15 -10 0 5 -7 18 -15 28
-8 11 -15 16 -15 10z"/>
<path d="M3409 1844 c-13 -14 -17 -23 -9 -19 13 5 46 45 37 45 -2 0 -14 -11
-28 -26z"/>
<path d="M3736 1795 c9 -14 19 -24 21 -21 6 6 -20 46 -30 46 -4 0 0 -11 9 -25z"/>
<path d="M3415 1769 c-4 -6 -5 -12 -2 -15 2 -3 7 2 10 11 7 17 1 20 -8 4z"/>
<path d="M3338 1753 c-8 -10 -18 -25 -22 -33 -4 -8 0 -6 9 5 9 11 21 19 26 18
5 -2 9 4 9 12 0 19 -4 19 -22 -2z"/>
<path d="M3323 1685 c0 -8 4 -12 9 -9 5 3 6 10 3 15 -9 13 -12 11 -12 -6z"/>
<path d="M3286 1678 c3 -5 10 -6 15 -3 13 9 11 12 -6 12 -8 0 -12 -4 -9 -9z"/>
<path d="M3790 1686 c0 -2 7 -9 15 -16 9 -7 15 -8 15 -2 0 5 -7 12 -15 16 -8
3 -15 4 -15 2z"/>
<path d="M3233 1630 c-18 -20 -33 -41 -33 -45 0 -4 9 4 21 19 11 14 25 24 30
21 5 -4 9 -1 9 5 0 6 4 9 9 6 5 -4 7 3 4 14 -3 11 -6 20 -7 19 0 0 -16 -18
-33 -39z"/>
<path d="M3130 1490 c-13 -8 -12 -10 3 -10 9 0 17 5 17 10 0 12 -1 12 -20 0z"/>
<path d="M3920 1481 c0 -6 4 -13 10 -16 6 -3 7 1 4 9 -7 18 -14 21 -14 7z"/>
<path d="M3099 1427 c-7 -17 -15 -36 -17 -42 -3 -5 5 -1 17 9 12 11 20 25 17
32 -3 7 0 14 7 17 8 2 8 5 0 10 -7 4 -16 -6 -24 -26z"/>
<path d="M3057 1410 c-9 -11 -13 -20 -8 -20 11 0 35 29 29 35 -2 2 -12 -4 -21
-15z"/>
<path d="M3965 1399 c-4 -6 -5 -12 -2 -15 2 -3 7 2 10 11 7 17 1 20 -8 4z"/>
<path d="M3578 1393 c12 -2 32 -2 45 0 12 2 2 4 -23 4 -25 0 -35 -2 -22 -4z"/>
<path d="M3475 1380 c-8 -13 5 -13 25 0 13 8 13 10 -2 10 -9 0 -20 -4 -23 -10z"/>
<path d="M1803 1308 c-22 -34 -69 -110 -105 -168 -181 -295 -265 -432 -308
-500 -46 -73 -90 -145 -168 -272 -75 -121 -119 -194 -170 -275 -29 -45 -52
-84 -52 -87 0 -4 365 -6 811 -6 802 0 811 0 816 20 3 11 9 20 14 20 5 0 9 11
9 25 0 14 3 25 8 25 4 0 8 13 9 29 1 16 11 49 22 73 11 23 23 54 27 68 7 24 7
24 15 5 7 -15 8 -12 6 15 -1 24 2 34 11 32 9 -1 10 6 6 24 -5 19 -4 25 5 20 7
-5 10 0 7 16 -2 13 2 34 7 46 10 22 12 22 19 5 5 -11 6 -5 2 15 -3 18 -2 38 3
45 5 7 20 47 33 89 14 43 28 78 33 78 4 0 7 7 7 16 0 25 43 144 52 144 4 0 8
15 8 34 0 19 5 38 11 42 8 4 9 -1 5 -17 -6 -21 -5 -22 4 -6 7 10 9 25 6 34 -4
9 1 27 10 40 8 14 13 32 10 40 -4 9 -1 22 5 29 6 8 8 14 4 14 -4 0 -13 -6 -19
-14 -8 -11 -17 -12 -36 -4 -21 8 -22 11 -8 17 14 5 15 8 3 25 -13 18 -14 17
-21 -8 -3 -14 -9 -26 -13 -26 -3 0 -231 79 -506 176 -275 96 -509 178 -521
181 -17 4 -28 -7 -61 -59z"/>
<path d="M3012 1328 c-6 -17 -9 -34 -7 -37 3 -2 5 2 5 10 0 12 2 11 11 -1 9
-12 10 -12 5 3 -3 10 -1 27 4 38 6 10 7 19 3 19 -5 0 -14 -14 -21 -32z"/>
<path d="M3854 1295 c8 -8 18 -15 22 -15 3 0 1 7 -6 15 -7 8 -17 15 -22 15 -5
0 -3 -7 6 -15z"/>
<path d="M3383 1258 c-2 -16 1 -18 10 -9 7 7 8 14 1 21 -6 6 -10 2 -11 -12z"/>
<path d="M3880 1266 c0 -2 7 -9 15 -16 13 -11 14 -10 9 4 -5 14 -24 23 -24 12z"/>
<path d="M2987 1247 c-3 -8 1 -14 9 -14 16 0 19 13 5 21 -5 3 -11 0 -14 -7z"/>
<path d="M3405 1219 c-4 -6 -5 -12 -2 -15 2 -3 7 2 10 11 7 17 1 20 -8 4z"/>
<path d="M3420 1206 c0 -2 8 -10 18 -17 15 -13 16 -12 3 4 -13 16 -21 21 -21
13z"/>
<path d="M2956 1176 c-3 -13 -9 -31 -12 -40 -3 -9 -2 -16 4 -16 5 0 12 17 15
37 7 43 2 56 -7 19z"/>
<path d="M3460 1146 c0 -2 8 -10 18 -17 15 -13 16 -12 3 4 -13 16 -21 21 -21
13z"/>
<path d="M2926 1095 c-3 -9 1 -23 10 -32 13 -14 14 -13 8 13 -9 37 -10 38 -18
19z"/>
<path d="M3490 1103 c0 -6 8 -17 18 -24 16 -13 16 -13 2 6 -8 11 -16 22 -17
24 -2 2 -3 0 -3 -6z"/>
<path d="M3529 1050 c0 -3 -2 -16 -5 -30 -3 -17 -1 -21 5 -11 7 11 11 10 20
-5 10 -18 11 -17 8 4 -3 19 -26 54 -28 42z"/>
<path d="M2910 759 c0 -5 5 -7 10 -4 6 3 10 8 10 11 0 2 -4 4 -10 4 -5 0 -10
-5 -10 -11z"/>
<path d="M3765 720 c-3 -6 1 -7 9 -4 18 7 21 14 7 14 -6 0 -13 -4 -16 -10z"/>
<path d="M5993 612 c-38 -37 -144 -130 -428 -377 -132 -114 -247 -214 -255
-222 -12 -11 63 -13 468 -13 l482 0 0 164 0 163 -96 144 c-91 136 -118 169
-135 169 -4 0 -20 -12 -36 -28z"/>
<path d="M3990 576 c0 -2 8 -10 18 -17 15 -13 16 -12 3 4 -13 16 -21 21 -21
13z"/>
<path d="M2831 544 c0 -11 3 -14 6 -6 3 7 2 16 -1 19 -3 4 -6 -2 -5 -13z"/>
<path d="M2821 484 c0 -11 3 -14 6 -6 3 7 2 16 -1 19 -3 4 -6 -2 -5 -13z"/>
<path d="M2706 194 c-4 -9 -4 -19 -1 -22 2 -3 7 3 11 12 4 9 4 19 1 22 -2 3
-7 -3 -11 -12z"/>
</g>
</svg>
