<?xml version="1.0" standalone="no"?>
<!DOCTYPE svg PUBLIC "-//W3C//DTD SVG 20010904//EN"
 "http://www.w3.org/TR/2001/REC-SVG-20010904/DTD/svg10.dtd">
<svg version="1.0" xmlns="http://www.w3.org/2000/svg"
 width="900.000000pt" height="900.000000pt" viewBox="0 0 900.000000 900.000000"
 preserveAspectRatio="xMidYMid meet">
<metadata>
Created by potrace 1.16, written by Peter Selinger 2001-2019
</metadata>
<g transform="translate(0.000000,900.000000) scale(0.100000,-0.100000)"
fill="#000000" stroke="none">
<path d="M4225 8454 c-683 -105 -1299 -698 -1701 -1635 -76 -178 -172 -454
-215 -619 -88 -336 -109 -428 -133 -570 -42 -258 -42 -241 -10 -306 15 -31 36
-59 46 -62 10 -2 18 -11 18 -19 0 -10 6 -12 20 -8 12 4 20 2 20 -5 0 -6 7 -19
16 -28 15 -15 16 -14 10 5 -5 15 1 29 19 49 19 20 22 30 13 35 -7 4 -16 5 -20
3 -4 -3 -8 2 -8 12 0 9 -7 22 -16 29 -15 10 -15 13 2 29 11 11 13 20 7 24 -6
4 -10 18 -9 32 1 20 -3 25 -22 22 -22 -2 -22 -1 -7 14 8 9 22 13 30 10 8 -3
15 -1 15 4 0 6 -12 10 -26 10 -22 0 -24 2 -14 15 7 8 10 21 7 29 -4 9 1 17 12
21 10 3 30 33 46 68 23 51 29 59 35 42 7 -18 9 -17 20 10 6 17 34 52 61 78 27
27 49 55 49 62 0 8 8 19 18 24 16 10 16 10 -1 11 -10 0 -15 5 -12 10 8 13 -1
13 -25 0 -17 -9 -19 -8 -11 12 5 13 14 22 20 21 19 -5 0 26 -21 33 -18 5 -17
8 11 25 33 20 41 47 16 54 -51 16 -50 16 -35 26 13 8 13 10 0 19 -10 6 -11 10
-2 10 6 0 12 7 12 15 0 10 -10 15 -28 15 -37 0 -46 -10 -24 -26 15 -12 14 -13
-11 -14 -16 0 -30 7 -33 15 -4 8 -12 15 -19 15 -7 0 -19 7 -26 16 -12 15 -11
16 11 9 14 -4 28 -12 32 -18 4 -7 12 -5 21 5 10 10 12 20 6 29 -7 12 -9 12 -9
0 0 -8 -3 -11 -7 -8 -3 4 4 18 16 31 13 14 21 28 18 33 -3 4 8 9 24 10 16 1
29 -2 29 -7 0 -6 7 -10 15 -10 9 0 12 6 9 15 -4 10 0 15 12 15 17 0 17 1 -1
13 -14 11 -15 16 -5 22 8 5 17 2 24 -7 6 -8 19 -17 29 -21 9 -3 17 -11 17 -17
0 -5 7 -10 15 -10 9 0 26 -6 38 -14 35 -22 92 -29 106 -12 8 10 9 16 1 21 -15
9 -2 25 15 18 20 -7 19 17 -2 47 -13 20 -14 22 -2 13 17 -14 30 -8 23 11 -2 6
5 22 16 34 12 12 18 27 15 32 -3 6 -1 10 6 10 8 0 8 4 -1 15 -10 13 -9 15 10
15 15 0 20 5 17 14 -3 8 0 17 8 19 16 7 47 66 39 78 -3 5 -16 9 -30 9 -16 0
-23 4 -18 11 3 6 15 9 25 6 21 -6 27 9 7 15 -13 5 -19 58 -7 58 4 0 5 9 2 21
-3 12 -2 24 3 28 16 11 32 47 39 85 4 20 12 36 19 36 17 0 38 51 26 65 -8 9
-6 14 5 19 25 9 17 26 -14 26 -42 0 -58 23 -37 55 10 14 14 34 11 45 -8 25 15
37 30 16 11 -14 13 -15 19 -1 3 8 17 15 31 15 20 0 29 7 36 30 7 19 18 30 30
30 14 0 19 7 18 28 l-1 27 -8 -25 -8 -25 -1 26 c-1 14 5 31 11 37 10 10 10 15
-2 22 -10 7 -11 10 -2 10 6 0 20 18 29 40 10 22 24 40 31 40 19 0 37 46 24 62
-8 10 -4 16 15 25 23 11 25 10 20 -7 -4 -17 -1 -19 19 -14 23 6 24 4 18 -20
-3 -14 -3 -26 1 -26 11 0 44 44 45 59 0 7 6 11 13 8 6 -2 23 0 36 5 23 8 23 9
5 23 -15 11 -17 16 -6 26 6 7 12 26 12 41 0 29 14 38 23 16 3 -7 6 1 6 19 1
18 12 44 27 62 14 17 21 31 15 31 -6 0 -11 5 -11 10 0 6 9 10 19 10 11 0 23 5
26 10 3 6 0 10 -8 10 -8 0 -22 9 -32 20 -10 11 -21 17 -25 15 -5 -3 -6 4 -3
15 4 15 2 19 -10 14 -8 -3 -18 -1 -22 5 -3 6 1 14 9 17 9 3 16 17 16 30 0 13
4 24 10 24 15 0 69 57 62 65 -4 4 4 2 17 -5 13 -6 21 -8 18 -3 -3 5 7 17 24
27 16 9 29 21 29 27 0 5 8 9 18 9 10 0 22 4 28 9 5 5 25 14 44 20 19 6 50 24
69 40 33 29 79 37 93 16 4 -5 8 1 8 15 0 16 3 21 8 12 6 -9 14 -6 31 12 19 20
27 23 45 15 16 -8 32 -4 70 16 36 19 51 23 56 14 10 -15 29 -3 39 24 5 13 23
25 47 32 21 6 38 17 36 23 -1 8 6 10 23 6 23 -6 25 -3 25 25 0 24 6 34 24 41
13 5 27 14 31 19 3 6 24 11 46 11 28 0 39 4 39 15 0 8 5 15 10 15 6 0 10 -4
10 -8 0 -5 28 5 62 21 45 22 66 27 77 20 12 -8 26 -4 56 15 22 14 42 28 45 31
11 13 80 6 80 -8 0 -11 3 -11 14 -2 16 14 56 -1 56 -20 0 -6 4 -8 9 -4 5 3 12
1 16 -4 3 -6 13 -7 21 -4 9 3 20 0 25 -8 4 -8 26 -14 51 -14 24 -1 57 -9 75
-18 18 -10 52 -18 75 -19 24 0 46 -6 50 -12 5 -7 8 -3 8 8 0 16 3 15 20 -7 11
-14 29 -29 40 -32 11 -4 20 -13 20 -21 0 -8 15 -16 40 -20 22 -4 45 -13 51
-20 6 -8 17 -14 25 -14 7 0 18 -9 24 -20 6 -11 16 -17 22 -14 7 5 9 2 5 -9 -4
-10 1 -18 13 -22 11 -3 19 -12 17 -18 -1 -7 9 -12 23 -13 14 0 34 -5 45 -11
11 -6 25 -8 32 -6 7 2 21 0 32 -6 14 -8 20 -8 23 1 3 7 5 -7 6 -32 1 -25 5
-56 8 -70 3 -14 5 -38 5 -55 -1 -23 1 -27 11 -17 19 19 29 14 22 -13 -4 -15
-2 -25 5 -25 6 0 11 6 11 13 0 6 8 0 18 -15 20 -33 32 -35 39 -8 3 12 10 17
17 13 6 -4 18 -8 26 -8 8 0 16 -10 18 -22 4 -26 -13 -31 -22 -7 -7 18 -26 10
-26 -12 0 -8 7 -14 15 -14 13 0 39 -13 74 -36 1 -2 0 -8 -4 -14 -5 -9 -9 -9
-14 -1 -5 7 -18 8 -43 1 -34 -10 -36 -13 -33 -43 8 -63 32 -120 49 -114 14 5
13 52 -2 70 -8 10 -9 17 -3 21 11 7 31 -24 31 -47 0 -8 7 -32 16 -53 9 -22 15
-41 14 -43 -1 -2 5 -8 14 -13 9 -5 17 -23 17 -41 1 -18 3 -24 6 -14 2 9 13 17
23 17 10 0 20 7 24 15 3 8 10 15 15 15 5 0 16 -7 25 -15 8 -8 21 -15 30 -15
12 0 15 -10 12 -50 -1 -28 2 -54 7 -57 6 -4 8 0 4 10 -4 11 -1 17 8 17 8 0 15
-6 15 -12 0 -7 8 2 16 20 16 31 19 32 76 32 51 0 59 -2 54 -16 -7 -17 18 -43
42 -44 23 0 12 27 -56 136 -332 534 -782 903 -1243 1018 -191 48 -375 58 -554
30z"/>
<path d="M4632 7687 c-26 -27 -28 -39 -7 -31 8 4 15 4 15 1 0 -3 -14 -10 -31
-16 -27 -9 -30 -9 -24 8 4 12 0 21 -11 25 -20 8 -44 -10 -45 -33 0 -12 -4 -11
-16 7 -8 12 -23 22 -32 22 -9 0 -22 5 -28 11 -7 7 -19 9 -27 6 -13 -5 -13 -11
-1 -49 7 -24 21 -78 30 -121 l17 -78 76 6 c101 9 237 -10 333 -46 21 -8 25
-16 24 -42 -3 -43 45 -119 84 -134 38 -14 38 -13 11 92 -11 43 -20 84 -20 91
0 7 25 50 55 95 69 103 70 112 10 89 -23 -9 -28 -7 -32 10 -4 14 -11 19 -20
15 -9 -3 -23 5 -34 19 -21 26 -44 26 -65 -1 -10 -11 -13 -11 -17 2 -4 8 -13
12 -22 9 -8 -3 -15 -2 -15 3 0 5 -6 18 -14 28 -13 18 -14 18 -41 -4 -22 -17
-30 -19 -37 -9 -6 10 -13 7 -29 -11 l-20 -25 6 27 c6 20 3 27 -8 27 -8 0 -17
7 -21 15 -8 21 -19 19 -44 -8z"/>
<path d="M4645 7358 c-44 -16 -92 -41 -106 -55 -15 -13 -62 -87 -105 -164
-133 -235 -127 -221 -115 -279 14 -66 14 -113 -1 -164 -18 -63 -32 -76 -75
-64 -56 15 -48 3 13 -20 69 -25 82 -19 123 53 26 47 36 80 46 165 3 19 7 53
10 75 3 22 7 58 10 81 7 55 107 237 148 268 26 19 49 25 125 30 61 4 91 2 87
-4 -3 -6 -3 -10 2 -10 4 0 22 -11 38 -25 21 -17 24 -23 10 -18 -16 5 -18 4 -9
-8 13 -15 13 -47 0 -67 -13 -21 14 -72 40 -78 13 -3 24 -12 24 -20 0 -11 -6
-10 -35 2 -52 22 -80 18 -108 -16 -24 -28 -47 -104 -47 -154 0 -25 -25 -42
-35 -26 -4 6 -16 10 -28 10 -20 -1 -21 -2 -4 -14 9 -7 17 -22 18 -32 0 -11 3
-13 6 -6 6 16 23 15 23 -2 0 -11 -13 -13 -57 -11 -49 3 -55 2 -41 -9 10 -7 19
-24 20 -37 2 -13 10 -27 18 -30 18 -8 46 -56 38 -65 -12 -11 -74 -11 -98 2
-28 14 -86 87 -119 149 -12 22 -21 32 -21 22 0 -15 74 -165 111 -225 10 -16
11 -25 3 -30 -6 -4 -10 -17 -9 -30 1 -12 -9 -34 -21 -47 -26 -28 -11 -34 29
-14 113 57 251 180 292 259 13 26 45 58 45 46 0 -15 -36 -86 -43 -86 -4 0 -5
-4 -2 -10 8 -13 25 -13 25 0 0 6 5 16 11 23 5 7 21 30 34 52 19 31 24 35 25
19 0 -40 -31 -123 -90 -239 -33 -65 -60 -120 -60 -123 0 -18 46 55 85 134 26
52 50 92 55 89 5 -3 7 -11 5 -18 -31 -100 -50 -153 -66 -184 -11 -21 -18 -30
-15 -20 4 11 2 16 -5 12 -6 -4 -8 -13 -5 -20 7 -20 -10 -70 -23 -68 -6 2 -11
-4 -11 -13 0 -14 -22 -44 -33 -44 -3 0 -3 9 0 20 7 28 -6 25 -16 -3 -6 -15 -5
-43 1 -72 8 -37 8 -50 -1 -53 -9 -3 -9 -7 0 -18 10 -12 9 -13 -6 -8 -15 6 -16
4 -5 -15 6 -12 12 -51 13 -86 2 -75 17 -77 17 -1 0 50 1 53 41 76 22 14 61 42
88 62 46 36 98 60 153 72 31 7 44 -6 23 -24 -18 -15 -20 -63 -3 -58 7 3 17 -4
23 -15 5 -11 21 -27 35 -35 24 -15 24 -14 -2 12 -31 29 -36 62 -14 91 12 17
10 23 -18 58 -30 38 -31 41 -34 161 l-4 123 30 25 c27 23 36 25 103 21 74 -5
146 -34 133 -54 -3 -5 -1 -9 4 -9 12 0 48 -108 39 -116 -3 -3 -13 10 -22 30
-15 32 -21 36 -55 36 -49 0 -80 -38 -80 -100 0 -33 -3 -41 -17 -39 -36 3 -37
-2 -8 -21 17 -11 27 -20 23 -21 -5 -1 -12 -3 -18 -4 -5 -1 -20 -3 -32 -4 -19
-1 -20 -3 -8 -11 8 -5 26 -10 40 -11 l25 -1 -25 -8 -25 -7 28 -12 c16 -6 35
-11 44 -11 13 0 13 2 2 17 -11 13 -11 17 -1 20 13 5 17 33 5 33 -5 0 -8 22 -9
50 0 45 1 49 20 44 32 -8 58 -8 87 0 22 6 27 4 32 -16 4 -12 2 -27 -3 -32 -6
-6 -10 -19 -10 -31 -1 -11 -21 -42 -47 -70 -44 -48 -48 -50 -99 -49 -64 0 -62
-11 3 -21 29 -4 42 -10 34 -15 -10 -5 -10 -9 -2 -14 6 -4 9 -12 6 -17 -3 -5 1
-6 9 -3 9 3 16 1 16 -4 0 -12 -62 -32 -98 -32 -21 0 -22 -2 -8 -15 12 -12 13
-22 6 -41 -13 -33 -13 -71 -1 -59 5 6 13 25 18 44 8 32 13 35 78 53 50 13 78
27 97 48 30 32 29 50 -4 87 -29 32 -19 56 28 71 24 8 45 22 51 35 5 12 22 47
37 77 36 75 35 134 -4 203 -30 54 -50 78 -84 101 -19 13 -19 15 6 85 26 70 24
80 -11 61 -15 -8 -17 -6 -14 14 6 30 -23 44 -32 15 -9 -26 -25 -24 -22 4 1 14
-3 22 -13 22 -8 0 -14 -8 -14 -17 1 -10 -2 -18 -7 -18 -5 0 -9 5 -9 11 0 8 -4
8 -15 -1 -18 -15 -40 -3 -26 14 6 7 6 18 1 25 -9 16 -40 8 -40 -11 0 -7 -10
-19 -21 -27 -19 -11 -21 -11 -16 2 3 9 -1 18 -10 22 -19 7 -34 -12 -26 -32 6
-16 -9 -17 -24 -2 -16 16 -44 4 -37 -16 8 -19 0 -19 -20 1 -12 12 -16 38 -17
107 0 51 -4 112 -7 137 l-7 45 -23 -58 c-32 -84 -35 -123 -18 -197 18 -75 21
-265 5 -306 -5 -16 -14 -58 -18 -95 -10 -78 -69 -221 -119 -291 -45 -64 -64
-65 -67 -7 -1 20 -5 41 -9 47 -4 7 -1 12 8 12 29 0 116 147 177 300 16 40 19
201 5 355 -7 90 -6 106 14 160 36 100 36 102 2 117 -18 7 -52 41 -79 78 -75
101 -130 116 -258 68z m260 -410 c-8 -56 -41 -131 -82 -185 -26 -36 -63 -61
-63 -43 0 5 8 10 18 11 9 0 12 3 6 5 -8 3 -6 16 7 41 10 20 17 39 15 41 -7 6
-54 -31 -58 -45 -2 -7 -7 -7 -16 3 -11 12 -10 14 3 14 9 0 13 5 10 10 -3 6 -2
10 3 10 6 0 6 18 1 48 -10 48 -4 98 11 107 5 3 20 -1 33 -10 14 -9 39 -20 56
-25 30 -8 31 -7 42 31 17 54 22 49 14 -13z"/>
<path d="M3838 6324 c-27 -20 -48 -38 -48 -40 0 -3 27 10 61 26 58 30 64 31
142 24 63 -5 86 -12 102 -28 l21 -21 22 22 c32 33 67 21 127 -42 28 -28 65
-60 83 -71 17 -10 32 -22 32 -26 0 -4 9 -8 20 -8 11 0 23 -7 26 -15 4 -8 14
-15 24 -15 15 0 17 -6 13 -31 -4 -29 -3 -31 19 -26 13 4 37 7 53 7 29 0 28 2
-25 36 -30 19 -86 52 -124 72 -52 27 -81 51 -114 94 -25 32 -53 60 -64 64 -11
3 -67 5 -126 4 -59 -1 -127 1 -152 5 -41 6 -49 3 -92 -31z"/>
<path d="M4305 6084 c-22 -7 -47 -18 -57 -23 -9 -6 -46 -8 -82 -5 -41 3 -66 1
-66 -6 0 -5 15 -10 34 -10 19 0 37 -4 40 -8 8 -13 -11 -35 -23 -28 -6 4 -11 3
-11 -3 0 -6 -30 -20 -67 -31 -37 -11 -77 -27 -88 -34 -12 -8 -53 -27 -91 -44
-39 -16 -101 -48 -138 -71 -38 -23 -80 -44 -95 -48 -14 -3 -37 -13 -51 -22
-14 -9 -37 -23 -52 -30 -34 -17 -74 -59 -65 -67 3 -4 58 27 122 67 159 101
207 128 228 129 9 0 17 5 17 10 0 6 10 10 23 11 12 0 36 9 52 19 46 29 109 57
146 65 19 4 56 19 83 32 27 14 66 31 85 38 20 7 57 23 84 35 76 36 55 54 -28
24z"/>
<path d="M5462 5993 c-14 -86 -9 -254 8 -314 12 -42 12 -45 0 -33 -14 14 -40
176 -41 258 l-2 71 -7 -50 c-11 -70 -11 -198 0 -275 5 -35 8 -66 6 -68 -2 -1
-11 4 -20 13 -9 9 -16 13 -16 8 0 -4 -4 -2 -9 5 -5 8 -17 12 -27 10 -16 -3
-14 -7 11 -20 33 -18 91 -75 84 -82 -3 -3 -36 11 -74 30 -40 20 -71 31 -73 25
-2 -6 -21 -11 -43 -11 -21 0 -39 -4 -39 -9 0 -11 25 -32 36 -30 5 1 29 -2 54
-6 34 -6 56 -20 92 -54 42 -42 72 -94 51 -90 -20 3 -25 -2 -13 -16 7 -9 10
-18 6 -22 -3 -3 -6 -1 -6 6 0 7 -4 9 -10 6 -5 -3 -10 -3 -10 2 0 4 -25 8 -55
9 -30 0 -55 -3 -55 -8 0 -4 -5 -8 -12 -8 -9 0 -9 3 0 12 7 7 12 22 12 35 0 17
8 25 33 31 l32 9 -40 21 c-22 12 -47 26 -55 30 -8 5 -28 15 -45 23 -16 8 -34
25 -40 37 -6 14 -18 22 -35 22 -24 -1 -24 -1 -6 -15 29 -22 11 -32 -50 -27
l-57 5 5 -32 c4 -30 4 -31 -28 -25 -19 3 -34 1 -39 -5 -3 -6 -10 -9 -15 -6 -5
3 -4 -8 2 -25 5 -17 12 -29 15 -26 2 2 30 -7 61 -22 31 -14 83 -28 117 -31 46
-5 61 -10 63 -23 2 -12 -3 -18 -13 -18 -14 0 -16 -6 -10 -27 4 -16 8 -29 9
-31 2 -1 33 4 69 12 42 8 67 10 67 4 0 -6 6 -6 14 1 14 12 49 5 41 -8 -2 -4
-43 -14 -90 -21 -71 -11 -90 -11 -112 0 -16 7 -52 15 -82 16 -53 3 -53 3 -31
-16 12 -10 34 -22 50 -25 48 -10 79 -61 51 -82 -14 -10 -14 -11 4 -10 17 2 20
-3 18 -40 -3 -47 12 -57 27 -18 9 24 30 35 30 15 0 -5 5 -10 10 -10 7 0 9 19
5 53 -8 75 5 88 43 46 31 -34 75 -159 85 -238 2 -16 -99 -51 -148 -51 -76 0
-219 48 -271 91 -19 15 -30 4 -15 -15 23 -28 165 -88 209 -88 23 -1 45 -5 48
-10 9 -14 70 -9 116 10 42 17 88 19 88 3 0 -5 -28 -16 -62 -26 -49 -14 -82
-16 -150 -11 -52 4 -89 3 -92 -3 -4 -5 -2 -12 3 -15 5 -4 12 0 14 6 4 10 6 10
6 -1 1 -22 -51 -111 -61 -105 -12 8 -1 90 15 115 14 22 18 18 -70 57 -60 26
-88 48 -168 128 -53 53 -98 94 -102 90 -4 -3 -7 -17 -8 -30 0 -20 2 -22 18
-12 15 9 22 6 42 -17 28 -32 24 -51 -17 -86 -15 -13 -28 -30 -28 -38 0 -8 -4
-11 -10 -8 -6 4 -4 16 6 31 10 14 12 24 6 24 -6 0 -16 -9 -22 -20 -6 -11 -15
-20 -20 -20 -5 0 -3 12 5 27 11 20 11 30 3 40 -9 11 -15 10 -33 -7 -25 -23
-35 -25 -35 -6 0 7 15 24 34 37 19 13 32 28 28 33 -3 6 -5 59 -4 119 2 107 3
113 81 345 44 131 84 255 90 277 17 65 25 230 13 251 -9 15 -11 9 -12 -36 0
-79 -15 -125 -46 -138 -36 -17 -44 -15 -44 13 0 15 -5 24 -12 23 -8 -2 -15
-26 -18 -63 -5 -60 -5 -60 -36 -59 -54 3 -85 26 -130 99 -33 54 -43 80 -44
114 l0 43 -57 -52 c-32 -29 -82 -80 -111 -114 -160 -183 -235 -244 -418 -345
-62 -33 -147 -86 -190 -117 -105 -76 -200 -120 -287 -134 -157 -26 -315 -63
-365 -86 -75 -33 -129 -81 -267 -238 -121 -138 -186 -234 -211 -316 -19 -61
-18 -217 1 -273 26 -77 53 -228 60 -337 8 -121 -13 -342 -43 -457 -18 -65 -96
-226 -141 -291 -11 -15 -49 -81 -84 -147 -93 -170 -81 -159 -155 -150 -34 4
-62 11 -62 16 0 5 8 9 18 9 13 1 12 4 -7 14 l-23 13 23 6 c13 3 20 9 16 13 -4
4 -2 13 4 21 9 10 8 13 0 13 -8 0 -10 8 -6 23 5 16 4 19 -4 11 -6 -6 -13 -25
-14 -42 -3 -43 -21 -35 -25 11 -2 27 1 39 12 43 9 3 16 12 16 18 0 13 14 30
123 150 73 80 151 201 141 219 -4 7 -4 9 1 5 46 -42 73 407 33 556 -11 41 -15
46 -34 42 -19 -5 -23 -1 -28 32 -2 20 -4 56 -3 80 2 34 -1 42 -15 42 -10 0
-18 -7 -18 -15 0 -12 -6 -11 -32 5 -18 11 -41 20 -50 20 -9 0 -20 9 -23 20 -3
11 -10 20 -14 20 -4 0 -6 14 -3 30 3 23 0 30 -12 30 -9 0 -16 5 -16 10 0 6 5
10 12 10 6 0 9 2 7 5 -3 2 -15 2 -27 -2 -17 -4 -21 -10 -16 -25 4 -15 3 -18
-6 -13 -7 4 -10 20 -7 39 3 17 3 25 0 19 -2 -7 -11 -13 -18 -13 -7 0 -15 -4
-17 -10 -1 -5 -13 -7 -25 -4 -13 4 -20 11 -16 20 4 11 9 12 19 3 11 -9 14 -8
14 5 0 9 -6 19 -13 22 -8 3 -19 19 -26 37 -13 32 -64 67 -98 67 -15 0 -15 20
-10 198 4 108 14 267 22 352 8 85 15 156 15 158 0 1 -29 2 -64 2 l-64 0 -6
-37 c-43 -284 -49 -983 -12 -1373 202 -2091 1286 -3561 2564 -3478 550 35
1078 376 1502 968 446 623 751 1528 846 2510 37 390 31 1089 -12 1373 l-6 37
-64 0 -65 0 7 -67 c3 -38 10 -104 15 -148 13 -104 24 -762 15 -849 -4 -36 -12
-66 -17 -66 -5 0 -9 5 -9 11 0 7 -20 30 -45 53 -25 24 -45 51 -45 63 0 12 -8
23 -20 26 -11 3 -20 14 -20 24 0 11 -16 34 -35 53 -19 19 -35 40 -35 47 0 7
-6 12 -12 11 -8 -2 -14 9 -16 25 -4 36 -44 79 -66 71 -9 -3 -16 -2 -16 2 0 18
-58 76 -69 70 -7 -5 -16 4 -24 22 -6 16 -18 27 -24 25 -7 -3 -13 2 -13 11 0 9
-6 16 -14 16 -8 0 -16 7 -20 15 -3 8 -1 15 3 15 5 0 7 9 4 20 -3 11 0 20 6 20
14 0 14 27 0 32 -6 2 -11 16 -11 31 0 16 -7 29 -18 32 -10 3 -20 15 -23 26 -3
12 -10 18 -16 14 -6 -3 -11 -1 -11 4 0 17 -17 13 -24 -6 -4 -9 -2 -20 5 -23 8
-6 8 -9 -1 -15 -6 -4 -21 3 -33 16 l-22 23 -6 -29 c-5 -22 -7 -24 -8 -8 0 12
-5 25 -11 28 -16 10 -12 25 5 19 10 -4 15 0 15 11 0 9 -4 14 -9 10 -5 -3 -12
-1 -16 4 -3 6 -12 8 -20 4 -12 -4 -15 4 -15 37 0 33 -3 40 -12 32 -10 -8 -13
-1 -15 29 -1 32 2 38 12 29 10 -8 15 -6 20 10 6 20 -10 52 -23 47 -4 -1 -7 2
-7 8 0 5 3 9 8 8 16 -6 6 11 -20 33 -33 29 -39 29 -52 7 -13 -23 -13 -16 -2
24 8 28 7 33 -10 38 -10 4 -19 11 -19 16 0 5 -10 9 -23 9 -20 0 -25 8 -36 60
-20 91 -24 66 -6 -40 17 -98 15 -130 -4 -55 -16 66 -26 204 -12 185 9 -12 11
-10 10 10 0 14 -4 34 -9 45 -9 20 -9 20 -9 0 -1 -15 -6 -12 -26 18 -24 35 -28
37 -81 37 -54 0 -54 0 -48 -26 6 -23 4 -25 -15 -19 -33 10 -25 -8 31 -75 l52
-62 20 28 c11 15 21 33 21 39 0 5 5 10 10 10 6 0 9 -34 8 -85 -1 -47 0 -79 3
-72 9 20 24 3 24 -26 0 -15 7 -37 15 -49 14 -20 13 -21 -16 -25 -28 -4 -30 -2
-26 19 2 12 -1 30 -7 38 -9 12 -11 8 -13 -21 -1 -20 -7 -42 -14 -48 -9 -8 -10
2 -5 47 4 38 3 57 -5 57 -5 0 -7 5 -4 10 3 6 -1 10 -10 10 -9 0 -14 4 -11 9
10 15 -6 43 -20 37 -8 -3 -14 0 -14 6 0 6 -2 9 -5 7 -8 -9 21 -79 30 -72 4 5
5 0 2 -10 -4 -10 -3 -16 2 -12 5 3 12 1 16 -5 3 -5 1 -10 -4 -10 -6 0 -11 -8
-11 -17 0 -15 2 -16 10 -3 8 13 10 13 10 -2 0 -33 -12 -48 -40 -48 -26 0 -56
21 -45 32 3 2 5 41 6 86 1 45 5 82 10 82 5 0 9 4 9 10 0 5 -7 7 -15 4 -8 -4
-15 -2 -15 4 0 6 4 12 9 14 4 2 0 11 -10 21 -16 18 -17 16 -13 -50 2 -37 6
-88 9 -113 3 -25 1 -58 -4 -75 -7 -22 -9 -25 -10 -9 -1 11 -10 47 -21 79 -20
60 -28 123 -10 80 6 -14 9 -1 9 43 1 45 -4 68 -15 79 -12 13 -14 31 -9 97 5
61 4 77 -5 66 -9 -12 -10 -11 -8 7 4 30 -15 30 -23 1 -6 -22 -6 -22 -18 6 -7
16 -9 42 -6 58 4 15 3 38 -1 50 -8 22 -8 22 -15 -7 l-7 -30 -1 31 c-1 29 26
77 54 96 18 13 70 9 93 -8 14 -10 22 -25 22 -45 0 -21 10 -38 35 -60 19 -17
35 -34 35 -38 0 -4 -15 -5 -34 -3 -19 2 -43 -1 -53 -7 -15 -9 -11 -10 22 -9
22 1 50 -4 62 -10 12 -7 24 -8 27 -4 6 10 -19 60 -44 87 -11 11 -26 37 -34 57
-9 20 -21 40 -27 43 -6 4 -14 17 -19 29 -7 17 -9 17 -9 4 -1 -14 -10 -18 -38
-18 -30 0 -44 -8 -80 -45 -44 -46 -59 -39 -28 15 22 38 18 46 -10 20 -28 -26
-33 -16 -9 18 8 12 11 22 6 22 -6 0 -13 -7 -16 -16 -4 -9 -9 -14 -12 -11 -7 6
11 67 34 115 8 17 12 35 9 39 -4 3 -16 -14 -26 -38 l-20 -44 -3 95 -3 95 -13
-82z m516 -992 c66 -123 164 -339 252 -556 43 -104 90 -217 106 -250 35 -72
124 -224 136 -231 32 -20 -30 -63 -142 -98 -30 -9 -73 -27 -95 -41 -44 -27
-59 -34 -123 -61 -43 -17 -165 -127 -193 -172 -12 -21 -14 -8 -15 125 -1 115
-7 178 -27 283 -23 117 -47 279 -47 317 0 6 9 15 20 18 31 10 24 25 -9 19 -28
-6 -29 -4 -39 41 -6 27 -8 54 -5 62 3 7 1 13 -5 13 -5 0 -7 26 -4 65 3 51 1
65 -9 65 -11 0 -11 2 1 10 13 9 13 10 0 10 -13 0 -13 1 0 10 12 8 13 12 2 19
-13 8 8 20 66 36 12 3 22 9 22 13 0 4 13 8 29 9 28 2 29 0 33 -43 2 -31 0 -43
-9 -40 -6 3 -17 -2 -24 -10 -10 -12 -13 -12 -24 3 -9 12 -10 22 -4 30 15 17
-7 26 -29 12 -30 -19 -44 -47 -33 -67 9 -15 10 -15 11 3 2 40 31 -60 31 -109
1 -51 8 -51 29 1 13 35 7 69 -11 57 -7 -4 -10 1 -7 12 2 10 10 20 18 22 18 3
44 -75 29 -84 -5 -3 -9 -14 -9 -26 0 -18 2 -19 16 -7 12 10 14 23 9 53 -10 69
-10 75 0 76 11 1 26 -85 25 -145 0 -25 -6 -44 -16 -50 -9 -5 -26 -18 -38 -28
-21 -18 -21 -18 19 -12 22 3 46 14 53 23 15 19 16 96 2 123 -6 10 -7 19 -2 19
11 0 2 114 -9 118 -5 2 -9 8 -9 13 0 6 5 7 10 4 6 -3 10 1 10 9 0 10 -6 13
-17 10 -16 -5 -16 -5 -1 5 18 12 13 55 -6 44 -7 -4 -7 -2 1 7 9 10 9 16 -1 26
-12 11 -26 143 -30 284 -2 60 5 100 12 66 2 -11 25 -58 50 -105z m-98 48 c0
-38 -1 -40 -17 -28 -10 8 -25 22 -34 31 -17 19 -54 24 -64 9 -3 -5 0 -13 6
-17 8 -4 4 -11 -12 -20 -13 -7 -18 -13 -11 -14 7 0 22 4 32 10 12 6 29 6 51
-2 29 -10 30 -12 15 -24 -11 -8 -13 -14 -7 -19 6 -3 11 -15 11 -26 0 -21 -36
-27 -42 -7 -3 9 -9 8 -22 -5 -27 -26 -34 -21 -39 26 -4 36 -4 35 -4 -11 1 -42
5 -56 21 -68 28 -20 59 -18 89 6 34 27 41 25 14 -4 -32 -34 -83 -43 -109 -19
-21 17 -21 17 -15 0 4 -10 7 -26 7 -34 0 -13 9 -15 51 -10 57 7 76 18 82 50 3
12 4 7 4 -12 -2 -30 -6 -36 -32 -42 -58 -13 -102 -17 -114 -9 -12 7 -33 253
-24 273 2 4 40 7 84 7 l79 0 0 -41z m-2574 12 c-4 -5 0 -12 6 -14 8 -3 6 -6
-4 -6 -10 -1 -18 -6 -18 -12 0 -6 6 -9 14 -6 16 6 26 -20 26 -72 0 -47 -38
-81 -90 -81 -21 0 -41 4 -44 9 -6 10 16 21 42 21 15 0 15 -2 2 -11 -13 -9 -13
-10 0 -6 8 2 15 11 15 19 0 8 6 22 13 30 6 8 14 29 16 47 3 27 1 30 -13 19 -8
-7 -25 -23 -37 -35 -23 -24 -60 -32 -48 -10 3 6 -9 -5 -29 -25 -19 -20 -38
-34 -43 -30 -4 4 -4 1 0 -6 4 -7 4 -27 0 -45 l-7 -32 -8 35 c-14 61 67 209
106 194 8 -4 21 -2 28 4 6 6 26 12 42 15 17 2 31 5 33 6 2 0 1 -3 -2 -8z
m1555 -111 c-13 -11 -29 -20 -37 -20 -8 0 -14 -4 -14 -10 0 -16 14 -12 50 15
37 27 59 33 41 11 -10 -11 -6 -21 18 -45 17 -17 33 -31 36 -31 2 0 15 -9 28
-20 18 -16 23 -32 25 -82 2 -34 -2 -64 -7 -67 -15 -10 8 -91 26 -91 19 0 -13
-55 -44 -76 -22 -14 -22 -13 -14 9 8 20 6 22 -17 21 -14 0 -28 -7 -30 -15 -3
-11 -1 -11 7 1 6 8 11 11 11 5 0 -5 -14 -23 -32 -40 -29 -28 -30 -29 -23 -6 5
16 4 21 -4 17 -6 -4 -11 0 -11 8 0 9 4 16 8 16 4 0 8 9 9 20 1 11 -4 20 -12
20 -16 0 -25 22 -25 61 0 18 -4 28 -10 24 -5 -3 -10 -5 -10 -3 0 2 -5 44 -11
93 -6 50 -12 102 -13 118 0 15 -5 27 -11 27 -16 1 58 59 75 59 10 0 8 -6 -9
-19z m-1533 -163 c21 -22 52 -142 66 -252 4 -27 9 -63 13 -80 3 -16 2 -27 -2
-23 -10 9 -22 67 -40 182 -19 120 -31 147 -70 158 -92 26 -202 -44 -223 -141
-17 -77 -44 -384 -45 -528 -1 -68 -5 -123 -8 -123 -15 0 -19 53 -14 190 8 244
33 445 62 505 31 62 96 103 192 120 13 2 26 7 29 10 9 9 18 5 40 -18z m-1150
-455 c33 -23 76 -27 68 -7 -3 9 0 12 10 8 7 -3 14 -11 14 -19 0 -8 5 -14 10
-14 6 0 10 5 10 11 0 16 26 -14 34 -39 4 -12 11 -22 16 -22 4 0 6 -8 3 -19 -6
-24 13 -36 33 -20 11 9 18 9 26 1 9 -9 8 -12 -6 -12 -14 0 -17 -5 -12 -25 3
-14 9 -36 12 -50 5 -19 2 -25 -10 -25 -9 0 -21 -11 -26 -24 -9 -24 -47 -53
-62 -48 -5 1 -8 -3 -8 -8 0 -5 5 -10 10 -10 6 0 10 -5 10 -10 0 -7 -6 -7 -19
0 -29 15 -39 12 -46 -10 -4 -11 -11 -18 -16 -15 -5 4 -9 -1 -9 -9 0 -25 -40
-31 -56 -8 -9 13 -21 18 -37 15 -23 -5 -24 -1 -30 58 -11 96 -8 259 3 259 6 0
10 7 10 15 0 17 20 44 33 45 5 0 21 -8 35 -18z m1290 -310 c8 -72 12 -137 9
-145 -3 -8 -35 -36 -72 -62 -53 -39 -68 -45 -80 -35 -9 8 -13 21 -9 36 3 13 3
32 -1 41 -6 17 -16 119 -19 191 -1 30 4 37 44 59 25 14 56 33 70 43 14 11 29
15 34 10 5 -5 15 -67 24 -138z m-375 -100 c-1 -6 29 -20 68 -32 l70 -21 -6
-77 c-3 -42 -8 -115 -11 -161 -3 -47 -7 -88 -10 -92 -10 -17 -165 29 -180 53
-8 12 -6 166 2 213 3 17 6 48 8 70 2 32 6 40 22 41 35 2 39 4 24 15 -13 9 -13
10 0 6 8 -2 14 -9 13 -15z m-930 1 c-13 -2 -23 -11 -23 -19 0 -11 4 -12 19 -4
25 13 71 13 71 0 0 -5 9 -10 20 -10 11 0 20 -5 20 -11 0 -6 7 -9 15 -5 8 3 15
1 15 -4 0 -6 9 -10 21 -10 12 0 23 -8 26 -20 5 -18 15 -24 36 -21 11 2 46 -36
40 -43 -4 -3 0 -6 7 -6 9 0 5 -9 -10 -25 -13 -14 -30 -23 -38 -20 -9 3 -12 -1
-8 -13 7 -22 -59 -96 -76 -86 -7 5 -9 2 -6 -8 5 -11 1 -14 -17 -10 -20 3 -22
7 -12 23 16 26 3 33 -27 14 -24 -16 -26 -16 -20 -1 11 28 -14 17 -33 -14 -27
-47 -44 -39 -42 20 2 38 7 51 21 56 10 3 18 10 18 15 0 5 8 9 19 9 10 0 21 8
23 18 4 15 1 18 -18 14 -15 -3 -24 0 -24 8 0 8 -10 9 -29 5 l-28 -6 -7 67 c-8
75 1 95 43 93 23 -2 24 -2 4 -6z m824 -215 c-3 -57 -8 -118 -11 -136 -4 -21
-2 -31 4 -27 25 16 48 -6 55 -53 3 -26 17 -83 31 -127 13 -44 33 -114 43 -155
11 -41 23 -86 27 -100 7 -22 6 -23 -8 -12 -10 7 -26 10 -41 7 -16 -4 -35 0
-51 10 -26 17 -26 17 -26 -8 0 -14 -5 -29 -10 -32 -8 -5 -8 -11 0 -20 13 -16
-13 -40 -36 -31 -11 4 -14 14 -9 35 7 32 -11 71 -32 71 -7 0 -13 3 -14 8 0 4
-2 16 -4 27 -19 96 -26 449 -11 543 7 38 13 52 22 48 9 -3 14 2 14 15 0 11 5
17 10 14 6 -3 10 -1 10 5 0 7 7 10 15 6 8 -3 15 -1 15 4 0 6 3 10 6 10 3 0 4
-46 1 -102z m3748 30 c-55 -515 -171 -988 -360 -1470 -4 -10 -15 -18 -24 -18
-13 0 -13 -2 -2 -9 7 -5 11 -14 7 -20 -9 -13 -46 8 -46 26 0 17 -31 4 -51 -21
-9 -11 -21 -16 -28 -11 -9 5 -10 10 -2 18 6 6 11 23 11 37 0 35 10 44 25 23
11 -15 13 -15 20 6 4 12 4 25 1 28 -3 4 -1 12 5 19 9 11 7 16 -8 21 -19 8 -19
9 -1 27 16 17 18 17 18 3 0 -14 4 -15 26 -5 21 10 24 17 19 37 -3 15 -7 33 -8
41 -1 8 -9 32 -16 54 -7 21 -11 54 -8 72 4 20 2 32 -4 29 -5 -4 -9 4 -9 15 0
12 -9 33 -20 47 -11 14 -17 29 -15 33 3 5 1 11 -5 15 -5 3 -10 22 -10 41 0 19
-4 34 -10 34 -5 0 -10 -4 -10 -10 0 -17 -35 -11 -53 10 -9 11 -28 20 -41 20
-27 0 -36 16 -37 68 -1 33 -2 34 -8 12 -8 -25 -6 -68 4 -163 4 -33 2 -47 -5
-42 -5 3 -10 14 -10 23 0 10 -9 23 -21 30 -28 18 -35 8 -10 -15 12 -11 19 -30
19 -50 -1 -18 4 -39 11 -47 7 -8 8 -17 3 -20 -14 -9 -115 91 -106 105 4 7 3 9
-3 6 -13 -8 -23 15 -23 55 0 28 1 28 17 13 16 -16 18 -16 36 6 17 21 20 22 28
6 6 -9 14 -17 20 -17 5 0 1 12 -10 28 -29 41 -34 67 -15 82 12 11 17 11 23 1
6 -9 10 -5 15 12 4 16 15 27 33 31 16 4 42 13 58 20 203 93 229 111 269 183
26 46 36 121 15 107 -8 -4 -9 0 -4 15 5 15 1 23 -12 28 -10 4 -40 24 -66 45
-27 21 -53 38 -58 38 -5 0 -9 7 -9 16 0 13 6 11 26 -10 15 -14 31 -26 37 -26
6 0 -9 17 -33 39 -31 27 -43 47 -45 69 -2 21 1 30 9 26 6 -3 4 0 -4 8 -22 19
-61 108 -59 136 0 10 3 12 6 5 2 -7 13 -13 24 -13 10 0 19 -7 19 -15 0 -18 17
-20 23 -2 4 10 7 10 18 0 9 -10 10 -13 1 -13 -7 0 -4 -8 7 -19 26 -26 61 -17
61 15 0 13 5 24 10 24 6 0 10 12 10 28 0 15 4 33 9 41 11 18 41 7 48 -17 3
-14 12 -17 34 -14 16 2 32 8 35 13 3 6 21 0 40 -12 l35 -21 37 40 c20 21 45
42 55 45 10 4 23 20 28 37 17 47 22 36 14 -32z m-590 -99 c4 -17 13 -33 20
-35 7 -3 11 -14 8 -25 -3 -10 -10 -16 -15 -13 -15 9 1 -37 22 -64 11 -14 20
-18 22 -11 5 15 38 21 38 8 0 -5 -4 -9 -8 -9 -5 0 -15 -11 -22 -25 -10 -18
-19 -24 -37 -21 -12 3 -23 2 -23 -2 0 -4 -14 -8 -30 -9 -40 -3 -60 33 -41 73
9 20 9 30 0 40 -6 8 -7 14 -2 14 5 0 9 10 8 23 -2 28 26 86 42 87 6 0 14 -14
18 -31z m-3157 -676 c-7 -9 -16 -10 -28 -3 -11 6 -21 6 -24 1 -4 -5 0 -12 6
-14 8 -4 7 -6 -4 -6 -9 -1 -20 4 -23 9 -9 15 -25 12 -25 -4 0 -9 -7 -12 -20
-9 -11 3 -20 10 -20 15 0 5 -4 7 -10 3 -5 -3 -7 -11 -5 -18 3 -7 -12 -20 -33
-29 -20 -10 -48 -26 -62 -35 -60 -42 -105 -67 -119 -68 -47 -4 -51 -6 -51 -27
1 -20 2 -21 13 -8 7 8 20 16 29 16 16 2 15 -2 -5 -28 -46 -62 -57 -84 -57
-118 l-1 -35 -13 25 c-10 16 -11 30 -5 42 6 12 5 28 -5 50 l-14 33 -1 -60 c-1
-45 -4 -56 -12 -45 -8 11 -9 6 -5 -20 13 -94 40 -139 81 -132 19 3 19 2 2 -8
-20 -13 -14 -49 11 -64 11 -6 11 -10 2 -16 -7 -4 5 -15 34 -29 25 -11 46 -28
46 -36 0 -8 7 -15 15 -15 10 0 15 10 15 28 0 20 3 23 9 13 5 -8 7 -21 4 -29
-5 -11 0 -13 18 -8 13 3 18 3 12 0 -20 -9 -15 -34 5 -34 28 0 30 -6 19 -55 -8
-34 -7 -49 1 -57 9 -9 12 -6 12 15 0 17 5 27 15 27 11 0 14 8 10 30 -7 42 44
93 58 58 4 -10 6 -10 6 -1 1 6 -3 15 -9 18 -5 3 -10 16 -11 28 0 17 -17 30
-74 58 -47 23 -76 32 -79 25 -2 -6 -5 -3 -5 7 -1 9 -16 24 -34 33 -19 9 -34
21 -34 28 0 8 28 2 81 -17 45 -16 121 -38 171 -48 49 -11 94 -24 100 -29 11
-10 14 -10 56 -10 20 0 28 -4 23 -12 -4 -7 -3 -8 5 -4 21 13 43 -1 33 -21 -12
-20 24 -53 63 -57 41 -4 40 -14 -1 -20 -63 -10 -147 -41 -152 -56 -5 -13 -2
-13 13 0 17 14 18 13 12 -3 -18 -48 -17 -66 2 -103 12 -21 21 -48 21 -60 0
-17 5 -20 24 -17 15 3 25 -1 30 -12 12 -32 -17 -43 -52 -21 -7 4 -19 2 -27 -4
-13 -11 -14 -8 -9 19 5 23 3 31 -8 31 -14 0 -41 26 -51 51 -4 8 -5 2 -4 -13 1
-15 -1 -27 -5 -28 -5 0 -20 1 -35 1 -22 1 -23 2 -8 6 23 6 36 23 28 36 -3 4
-11 0 -19 -10 -11 -14 -13 -15 -14 -3 0 12 -4 10 -15 -4 -15 -19 -15 -19 -15
2 0 13 -6 22 -15 22 -8 0 -15 9 -15 20 0 11 -4 20 -10 20 -5 0 -10 -6 -10 -14
0 -7 -6 -19 -14 -26 -8 -6 -12 -18 -9 -26 3 -8 -1 -14 -10 -14 -10 0 -13 7
-10 20 4 15 0 20 -15 20 -11 0 -22 7 -26 15 -3 8 -12 15 -21 15 -8 0 -15 -7
-15 -15 0 -8 7 -15 15 -15 8 0 15 -4 15 -10 0 -5 -11 -10 -24 -10 -14 0 -28
-4 -31 -10 -3 -5 -15 -10 -25 -10 -10 0 -21 -8 -23 -17 -3 -10 -5 -3 -6 15 0
17 -6 32 -12 32 -6 0 -9 -6 -6 -14 6 -14 -10 -36 -26 -36 -12 0 -39 69 -31 82
4 6 3 8 -3 5 -17 -11 -152 345 -222 589 -38 128 -30 139 100 153 99 9 123 6
95 -14 -10 -8 -15 -21 -12 -36 3 -13 5 -39 5 -56 1 -22 6 -33 16 -33 18 0 17
-3 6 38 -11 36 2 88 18 77 11 -6 25 31 16 44 -3 6 8 8 25 6 20 -3 30 0 30 9 0
9 18 16 47 21 39 6 49 4 61 -12 13 -17 14 -17 31 4 19 23 69 31 188 29 40 -1
49 -4 41 -13z m697 -173 c-2 -22 0 -38 5 -35 5 3 11 -8 15 -24 4 -21 11 -28
21 -24 12 4 15 -3 14 -33 0 -48 4 -97 15 -146 6 -31 4 -38 -9 -38 -12 0 -14
-7 -9 -32 8 -45 13 -47 14 -7 l1 34 7 -30 c4 -16 5 -57 3 -90 -4 -68 24 -201
62 -295 14 -33 21 -62 17 -64 -4 -3 -8 0 -8 7 0 7 -8 30 -18 52 -15 35 -18 38
-25 20 -8 -19 -9 -19 -9 3 -1 12 -5 22 -11 22 -5 0 -10 8 -10 18 0 9 -13 43
-30 75 -16 31 -25 55 -19 52 5 -4 9 1 9 9 0 9 -4 16 -9 16 -10 0 -21 23 -27
60 -7 39 -54 231 -64 266 -6 17 -10 44 -10 62 0 17 -4 34 -10 37 -5 3 -10 21
-10 38 l1 32 19 -24 c17 -19 20 -20 20 -6 0 14 3 15 15 5 13 -10 15 -9 17 11
1 13 2 31 4 39 1 8 2 18 3 23 1 4 5 7 10 7 5 0 8 -18 6 -40z m-405 -798 c0 -4
15 -8 33 -8 75 0 213 -91 253 -166 25 -48 175 -158 215 -158 7 0 24 10 38 23
14 12 20 15 13 6 -7 -9 -10 -23 -7 -31 3 -9 -5 -28 -19 -45 -41 -48 -156 -314
-156 -360 0 -55 -13 -85 -41 -95 -50 -17 -32 -26 24 -11 94 24 217 28 278 8
30 -10 60 -23 68 -29 8 -6 55 -11 112 -11 81 0 99 -3 102 -16 2 -9 10 -16 18
-17 8 -1 37 -6 64 -12 68 -15 123 -20 235 -20 56 0 119 -7 150 -16 30 -8 66
-18 80 -21 14 -3 39 -15 55 -27 17 -11 32 -20 35 -19 3 1 35 -16 72 -38 75
-46 133 -53 199 -25 35 14 37 14 58 -8 11 -12 21 -34 21 -47 0 -14 11 -36 25
-49 14 -13 25 -29 25 -35 0 -21 -187 -120 -300 -158 -39 -13 -47 -13 -61 -1
-21 19 -46 19 -30 0 8 -10 8 -16 -2 -24 -19 -16 -169 -51 -251 -59 -67 -6 -68
-6 -61 15 5 16 2 22 -9 22 -9 0 -16 -8 -16 -19 0 -13 -9 -21 -28 -26 -47 -10
-289 15 -389 40 -235 60 -485 190 -681 355 -73 62 -86 84 -54 94 9 3 34 22 55
41 21 19 42 35 48 35 5 0 9 5 9 10 0 6 7 10 15 10 8 0 15 7 15 15 0 8 3 14 8
14 19 -3 23 2 13 15 -10 11 -19 12 -42 4 -16 -5 -29 -14 -29 -19 0 -4 -7 -6
-15 -3 -8 4 -15 1 -15 -5 0 -6 -24 -22 -52 -36 -29 -14 -61 -31 -70 -38 -15
-10 -28 -2 -89 58 -66 65 -234 270 -245 299 -3 8 7 23 21 34 15 12 28 29 29
38 2 10 13 18 30 20 15 1 38 10 52 18 13 9 38 16 57 16 18 0 38 5 44 11 7 7
39 9 95 5 111 -7 111 -7 126 -19 9 -7 15 -1 23 22 7 20 18 31 28 30 31 -3 41
1 41 16 0 8 4 15 9 15 5 0 11 9 14 20 3 11 12 20 21 20 9 0 16 8 16 20 0 11
-5 20 -11 20 -5 0 -8 4 -5 8 7 12 -31 52 -49 52 -8 0 -15 7 -15 15 0 8 -9 20
-20 27 -11 7 -20 18 -20 25 0 7 -12 16 -26 19 -19 5 -22 9 -13 15 11 6 9 9 -4
15 -10 4 -16 13 -13 20 4 10 -2 12 -24 8 -24 -5 -29 -3 -32 17 -2 17 -8 23
-22 21 -10 -2 -15 1 -12 7 4 5 2 12 -3 15 -16 10 -32 -21 -26 -51 5 -27 5 -27
-5 -4 -6 13 -20 32 -31 42 -21 18 -21 18 8 16 24 -2 28 1 26 21 -2 12 2 22 7
22 6 0 10 -4 10 -8z m2898 -66 c7 -4 19 -5 27 -2 20 7 19 -2 -8 -49 -12 -22
-32 -44 -45 -50 -12 -5 -32 -31 -45 -57 -12 -26 -28 -48 -34 -48 -20 0 -15
-20 5 -21 10 0 12 -3 5 -6 -7 -2 -13 -14 -13 -25 0 -32 -86 -168 -215 -340
l-50 -66 -12 27 c-26 55 -85 157 -102 176 -37 43 -81 123 -81 149 0 32 24 93
47 118 15 17 100 52 204 83 31 9 96 41 145 70 89 54 134 65 172 41z m-1191
-698 c15 -7 30 -13 32 -15 2 -2 -7 -13 -21 -26 -14 -13 -33 -36 -43 -50 -10
-16 -27 -27 -39 -27 -12 0 -32 -7 -44 -16 -12 -8 -22 -10 -22 -5 0 6 -6 10
-12 9 -8 -2 -12 6 -11 22 10 100 75 144 160 108z"/>
<path d="M6380 5525 c0 -8 -4 -15 -8 -15 -5 0 -24 -13 -42 -30 -34 -31 -31
-41 4 -15 29 22 52 20 30 -2 -16 -17 -16 -18 -1 -21 24 -5 21 -17 -8 -30 -35
-16 -55 -15 -55 4 0 8 -4 12 -10 9 -17 -11 13 -47 35 -41 11 2 31 7 45 10 23
6 23 6 4 -3 -27 -12 -38 -28 -24 -36 5 -3 10 -1 10 4 0 22 16 10 29 -21 12
-32 13 -32 23 -11 6 12 20 23 32 25 13 2 19 9 17 18 -12 48 -17 90 -11 90 4 0
11 7 14 16 3 8 2 12 -4 9 -6 -3 -10 1 -10 9 0 20 -20 31 -30 16 -4 -7 -13 -9
-20 -5 -10 6 -9 11 5 22 18 12 18 13 -3 13 -13 0 -22 -6 -22 -15z"/>
</g>
</svg>
